<svg width="73" height="35" viewBox="0 0 73 35" fill="none" xmlns="http://www.w3.org/2000/svg">
<g clip-path="url(#clip0_5305_313)">
<path d="M0.00244141 35H72.9971V0H0.00244141V35Z" fill="black"/>
<path d="M0.847656 34.3723H72.2192V0.637085H0.847656V34.3723Z" fill="white"/>
<path d="M16.5908 19.3239L17.9716 20.5194L19.3983 19.3319H20.5414V19.6988L18.7535 21.1919L20.5414 22.7883V19.3319H23.7686C24.379 19.3319 25.2739 19.545 25.2739 20.5006C25.2739 21.8413 24.0963 21.8572 23.4514 21.8572H21.7756V23.1552H19.3868L17.9275 21.8832L16.4327 23.1458H11.683V19.3232H16.5908V19.3239ZM31.2118 19.3239H35.2822V20.1481H32.4574V20.864H35.2036V21.5892H32.4574V22.3462H35.2822V23.1465H31.2118V19.3239ZM27.1088 23.1559H25.8632V19.3326H29.1009C29.7132 19.3326 30.5957 19.5377 30.5957 20.3562C30.5957 20.8184 30.4146 21.1587 29.7352 21.4151C30.3236 21.4664 30.5507 21.7568 30.5507 22.3707L30.5957 23.1559H29.3836L29.35 22.4553C29.3395 22.1317 29.1689 21.8073 28.7397 21.8073H27.1088V23.1559ZM43.0991 20.8141C44.6312 20.8719 44.7577 21.449 44.7577 22.063C44.7577 22.7796 43.9768 23.1639 43.1614 23.1639H40.5465V22.3455H42.5845C42.9304 22.3455 43.445 22.3455 43.445 21.9771C43.445 21.8023 43.354 21.6917 42.986 21.6614C42.7001 21.6405 42.4135 21.6255 42.1265 21.6166C40.7438 21.5892 40.4229 21.0713 40.4229 20.4399C40.4229 19.7234 41.0907 19.3312 41.9061 19.3312H44.521V20.151H42.6075C42.1725 20.1553 41.702 20.112 41.702 20.484C41.702 20.718 41.9349 20.765 42.2281 20.7874C42.3296 20.7881 43.009 20.8141 43.0991 20.8141ZM38.4346 20.8141C39.9658 20.8719 40.0932 21.449 40.0932 22.063C40.0932 22.7796 39.3114 23.1639 38.4969 23.1639H35.881V22.3455H37.9191C38.2641 22.3455 38.7805 22.3455 38.7805 21.9771C38.7805 21.8023 38.6895 21.6917 38.3216 21.6614C38.1567 21.6441 37.5512 21.6181 37.4621 21.6166C36.0794 21.5892 35.7584 21.0713 35.7584 20.4399C35.7584 19.7234 36.4263 19.3312 37.2407 19.3312H39.8566V20.151H37.9431C37.5071 20.1553 37.0376 20.112 37.0376 20.484C37.0376 20.718 37.2695 20.765 37.5646 20.7874C37.6652 20.7881 38.3445 20.8141 38.4346 20.8141ZM22.0247 16.5841H20.7791V12.7608H24.0168C24.6281 12.7608 25.5125 12.9659 25.5125 13.7844C25.5125 14.2459 25.3314 14.5876 24.6521 14.8433C25.2404 14.8946 25.4675 15.185 25.4675 15.7989L25.5125 16.5841H24.3014L24.2669 15.8842C24.2554 15.5599 24.0867 15.2362 23.6555 15.2362H22.0257L22.0247 16.5841ZM26.1468 16.5841H27.3915V12.7565H26.1468V16.5841ZM15.9958 12.7608H20.0652V13.5843H17.2434V14.3015H19.9876V15.0275H17.2434V15.7823H20.0652V16.5841H15.9958V12.7608ZM6.90739 16.5841H9.41496V13.7468L11.0784 16.5841H12.211L13.9136 13.7937V16.5841H15.1583V12.7608H13.172L11.6437 15.3258L10.1211 12.7608H8.16836V16.4433L5.99423 12.7608H4.34807L2.12891 16.5841H3.44258L3.92838 15.731H6.41296L6.90739 16.5841ZM34.5568 15.7332H32.0732L31.5865 16.5863H29.9441C28.5634 16.5863 27.9511 15.7137 27.9808 14.6555C28.023 13.0851 29.2542 12.7586 29.8205 12.7586H31.4456V13.5908H30.6762C29.8493 13.5908 29.2044 13.6558 29.2044 14.5515V14.8288C29.2102 15.5028 29.6787 15.6624 29.9786 15.7094C30.0524 15.7224 30.1885 15.7274 30.2383 15.7245L30.7768 15.7224L32.4919 12.7608H34.14L36.2624 16.3494V12.7586H38.1012L40.2015 15.406V12.7586H41.4462V16.5863H39.7483L37.5071 13.7865V16.5863H35.0503L34.5568 15.7332Z" fill="#00ACEC"/>
<path d="M44.5317 18.7359V1.71765H2.23633V14.8771L3.82213 12.1814H6.51655L7.4 13.785V12.1814H10.6818L11.6783 13.7691L12.6518 12.1814H24.2219C24.6742 12.1814 25.2855 12.3013 25.5586 12.6762V12.1814H27.9809V12.7614C28.2981 12.4378 28.7733 12.1814 29.7008 12.1814H34.6374L35.5429 13.7337V12.1814H38.4644L39.505 13.53V12.1814H42.1764V17.1641H39.3019L38.1013 15.697V17.1641H34.4563L33.868 16.1911H32.7124L32.1691 17.1641H29.8819C29.3837 17.1308 28.23 16.9762 27.9809 16.3969V17.1641H23.5886V16.0726C23.5886 15.918 23.4075 15.7309 23.1583 15.7309H22.6831V17.1641H13.3312V16.0379L12.6298 17.1641H10.7278L10.0034 16.0206V17.1641H6.26742L5.76916 16.277H4.56856L4.04826 17.1641H2.23633V33.2598H44.5317V23.3949C44.3055 23.5834 43.9433 23.7366 43.4 23.7366H39.8663V23.361C39.5951 23.5834 39.2109 23.7366 38.5986 23.7366H28.6373V22.6957C28.6143 22.5584 28.7053 22.2688 28.207 22.2688H27.7998V23.7366H25.1504V22.0456C24.8783 22.3887 24.2909 22.4046 23.9057 22.4219H22.501V23.7366H18.9692L17.9496 22.7975L16.8631 23.7366H10.8638V18.7359H16.9541L18.0177 19.6402L19.1052 18.7359H23.9278C24.267 18.7517 24.9118 18.8717 25.1504 19.1447V18.7359H29.2716C29.6338 18.7359 30.3352 18.8543 30.6303 19.2126V18.7359H35.792V19.1786C36.0632 18.9063 36.4944 18.7359 37.1498 18.7359H40.4555V19.1628C40.7047 18.889 41.362 18.7359 41.7472 18.7359H44.5317ZM56.1717 18.301C56.1717 18.9403 52.9436 18.2353 52.9436 19.7897C52.9436 20.4998 53.7053 20.8212 54.562 20.8212C55.2375 20.8212 55.7559 20.7158 56.2675 20.3568L56.4515 20.7223H58.0795C57.9865 20.5894 57.9722 20.416 57.9722 20.221V18.6217C57.9722 17.8055 57.8418 17.2052 55.6955 17.2052C53.9037 17.2052 53.2195 17.6292 53.2195 18.353H54.951C54.9941 18.0597 55.3323 18.0215 55.5834 18.0215C55.775 18.0215 56.1717 18.054 56.1717 18.301ZM65.539 20.2614V20.7187H67.1564V16.0192H65.3579V17.6444C64.9755 17.3049 64.5779 17.2009 64.0068 17.2009C62.9241 17.2009 62.0847 17.9377 62.0847 19.0739C62.0847 20.0397 62.7775 20.8162 64.1448 20.8162C64.7264 20.8162 65.1154 20.6797 65.539 20.2614ZM61.6181 18.3776V17.2204C61.5404 17.2139 61.4619 17.2009 61.3833 17.2009C60.6838 17.2009 60.2411 17.4552 59.9901 17.9911H59.9729V17.2991H58.3372V20.7179H60.1367V19.3715C60.1367 18.634 60.5094 18.3725 61.2453 18.3725L61.6181 18.3776ZM50.872 17.8069C50.8107 17.3186 50.4034 17.0376 49.7634 17.0376C49.0447 17.0376 48.6116 17.5014 48.6116 18.4079C48.6116 19.0674 48.8023 19.6864 49.84 19.6864C50.4993 19.6864 50.8107 19.3419 50.8892 18.8912H52.8535C52.6734 20.1047 51.5207 20.8342 49.8774 20.8342C47.8173 20.8342 46.5697 19.8836 46.5697 18.3552C46.5697 16.8347 47.9371 15.8884 49.6781 15.8884C51.582 15.8884 52.6475 16.5999 52.8123 17.8062H50.872V17.8069Z" fill="#00ACEC"/>
<path d="M21.7764 21.0733H23.3278C23.8366 21.0733 24.0176 20.8509 24.0176 20.5951C24.0176 20.4073 23.8538 20.1567 23.3325 20.1567H21.7764V21.0733ZM15.7533 20.148H12.9295V20.8639H15.6738V21.5891H12.9295V22.3461H15.7993L17.1695 21.1925L15.9574 20.1516L15.7533 20.148ZM27.1088 21.0228H28.6601C29.1689 21.0228 29.35 20.8516 29.35 20.5951C29.35 20.4073 29.1861 20.1567 28.6649 20.1567H27.1088V21.0228ZM22.0246 14.451H23.5759C24.0857 14.451 24.2658 14.2805 24.2658 14.0241C24.2658 13.837 24.102 13.5842 23.5807 13.5842H22.0246V14.451ZM5.93187 14.9082H4.41602L5.15957 13.5712L5.93187 14.9082ZM33.3015 13.5733L32.5599 14.9097H34.0815L33.3015 13.5733Z" fill="white"/>
<path d="M70.5062 21.7661L55.27 33.2512H57.4336L70.5062 23.3971V21.7661Z" fill="#3B4095"/>
<path d="M70.5059 24.9797L59.5347 33.2512H61.6963L70.5059 26.6115V24.9797Z" fill="#00ACEC"/>
<path d="M70.5061 28.1942L63.7959 33.2513H65.9614L70.5061 29.8245V28.1942Z" fill="#6CB35E"/>
<path d="M46.0791 31.4425C46.0797 31.204 46.1427 30.9679 46.2644 30.7478C46.3861 30.5276 46.5642 30.3277 46.7884 30.1595C47.0127 29.9912 47.2787 29.8579 47.5713 29.7672C47.8639 29.6765 48.1774 29.6302 48.4937 29.6309C48.8094 29.6307 49.122 29.6774 49.4137 29.7684C49.7053 29.8594 49.9704 29.9928 50.1936 30.1611C50.4168 30.3293 50.5938 30.5291 50.7145 30.749C50.8351 30.9689 50.8971 31.2045 50.8969 31.4425C50.8983 31.6811 50.8371 31.9176 50.717 32.1384C50.5969 32.3592 50.4201 32.56 50.1969 32.7291C49.9736 32.8983 49.7082 33.0326 49.416 33.1243C49.1237 33.216 48.8103 33.2633 48.4937 33.2635C48.1765 33.2638 47.8622 33.2169 47.569 33.1254C47.2758 33.034 47.0095 32.8999 46.7851 32.7307C46.5608 32.5616 46.383 32.3607 46.2619 32.1396C46.1407 31.9186 46.0786 31.6817 46.0791 31.4425Z" fill="#00ACEC"/>
<path d="M50.6064 31.4425C50.6065 31.2333 50.5519 31.0262 50.4458 30.833C50.3396 30.6397 50.184 30.4642 49.9878 30.3163C49.7915 30.1684 49.5586 30.0512 49.3022 29.9713C49.0458 29.8913 48.771 29.8503 48.4936 29.8505C48.2157 29.8499 47.9404 29.8907 47.6835 29.9704C47.4265 30.0501 47.193 30.1673 46.9962 30.3152C46.7994 30.4631 46.6432 30.6388 46.5367 30.8322C46.4301 31.0256 46.3751 31.233 46.375 31.4425C46.375 31.8655 46.5979 32.2712 46.9947 32.5703C47.3914 32.8694 47.9296 33.0374 48.4907 33.0374C49.0518 33.0374 49.5899 32.8694 49.9867 32.5703C50.3835 32.2712 50.6064 31.8655 50.6064 31.4425Z" fill="white"/>
<path d="M49.6913 32.4603H49.3013L48.53 31.5234H47.9263V32.4603H47.5977V30.4291H48.7705C48.9976 30.4291 49.2247 30.4392 49.4268 30.5295C49.629 30.6154 49.7287 30.796 49.7287 30.9665C49.7287 31.3667 49.3578 31.514 48.8778 31.5234L49.6913 32.4603Z" fill="#00ACEC"/>
<path d="M48.4313 31.3284C48.8097 31.3284 49.3961 31.376 49.3961 30.9614C49.3961 30.6479 49.0301 30.6104 48.6957 30.6104H47.9272V31.3284H48.4313ZM56.1715 19.2083C56.1763 19.8483 55.9157 20.0506 55.2842 20.0506C54.9287 20.0506 54.7122 19.9328 54.7122 19.7638C54.7131 19.3188 55.5841 19.4236 56.1715 19.2083ZM65.418 19.0415C65.418 19.4387 65.2197 19.8367 64.5959 19.8367C64.0085 19.8367 63.8878 19.42 63.8878 19.0602C63.8878 18.6832 64.0516 18.2512 64.6495 18.2512C65.2455 18.2512 65.418 18.6622 65.418 19.0415Z" fill="white"/>
</g>
<defs>
<clipPath id="clip0_5305_313">
<rect width="73" height="35" fill="white"/>
</clipPath>
</defs>
</svg>
