<svg width="61" height="42" viewBox="0 0 61 42" fill="none" xmlns="http://www.w3.org/2000/svg">
<g clip-path="url(#clip0_5315_191)">
<path d="M48.2917 5.25H12.7083C9.33911 5.25278 6.10904 6.17554 3.72664 7.81589C1.34424 9.45623 0.0040358 11.6802 0 14H61C60.996 11.6802 59.6558 9.45623 57.2734 7.81589C54.891 6.17554 51.6609 5.25278 48.2917 5.25Z" fill="black"/>
<path d="M0 28C0.0040358 30.3198 1.34424 32.5438 3.72664 34.1841C6.10904 35.8245 9.33911 36.7472 12.7083 36.75H48.2917C51.6609 36.7472 54.891 35.8245 57.2734 34.1841C59.6558 32.5438 60.996 30.3198 61 28V17.5H0V28ZM17.7917 27.125C17.7917 27.6442 17.5681 28.1517 17.1491 28.5834C16.7302 29.0151 16.1348 29.3515 15.4381 29.5502C14.7415 29.7489 13.9749 29.8008 13.2354 29.6996C12.4958 29.5983 11.8165 29.3483 11.2833 28.9812C10.7501 28.614 10.387 28.1463 10.2399 27.6371C10.0928 27.1279 10.1683 26.6001 10.4569 26.1205C10.7454 25.6408 11.2341 25.2308 11.8611 24.9424C12.488 24.654 13.2251 24.5 13.9792 24.5C14.9903 24.5 15.96 24.7766 16.675 25.2688C17.39 25.7611 17.7917 26.4288 17.7917 27.125Z" fill="black"/>
</g>
<defs>
<clipPath id="clip0_5315_191">
<rect width="61" height="42" fill="white"/>
</clipPath>
</defs>
</svg>
