<svg width="56" height="33" viewBox="0 0 56 33" fill="none" xmlns="http://www.w3.org/2000/svg">
<g clip-path="url(#clip0_5305_294)">
<path d="M0.00732422 0H55.9933V33H0.00732422V0Z" fill="black"/>
<path d="M11.5426 10.1088C12.0814 9.88475 12.6561 9.76526 13.2524 9.76526C15.8626 9.76526 18.0418 12.0774 18.5399 15.1512L22.2398 14.2103C21.392 8.98858 17.6898 5.05737 13.2524 5.05737C12.2346 5.05737 11.26 5.26349 10.3452 5.64586L11.5426 10.1088Z" fill="#FFCB05"/>
<path d="M7.17698 25.0629L9.67945 21.535C8.56352 20.3013 7.85947 18.5 7.85947 16.4926C7.85947 14.4881 8.56352 12.6868 9.67945 11.4561L7.17698 7.92517C5.28036 10.0222 4.08301 13.0841 4.08301 16.4926C4.08301 19.904 5.28036 22.9659 7.17698 25.0629Z" fill="#00A4E0"/>
<path d="M18.5399 17.8428C18.0394 20.9137 15.8626 23.2228 13.2548 23.2228C12.6561 23.2228 12.079 23.1033 11.5426 22.8763L10.3452 27.3452C11.26 27.7246 12.237 27.9307 13.2548 27.9307C17.6874 27.9307 21.3872 24.0054 22.2398 18.7897L18.5399 17.8428Z" fill="#EF4123"/>
<path d="M25.4748 21.6814C25.3527 21.4365 25.1899 21.0451 25.0893 20.7554C24.5026 19.0586 24.4762 17.3021 24.9696 15.6173C25.5132 13.7682 26.5525 12.3553 27.8959 11.6323C29.5842 10.7272 31.4496 10.9035 33.0685 12.1013C34.0958 12.8362 34.8238 13.9714 35.377 15.5785C35.4464 15.7846 35.5087 16.0027 35.5709 16.1909L25.4748 21.6814ZM28.8466 14.3597C27.6468 15.0019 27.029 16.406 27.1583 18.0489L32.2351 15.3216C31.361 14.043 30.2259 13.6189 28.8466 14.3597ZM32.8673 20.2923C32.8649 20.2923 32.8649 20.2953 32.8649 20.2953L32.7596 20.2057C32.4554 20.8181 31.9837 21.317 31.3874 21.6396C30.2523 22.255 29.201 22.0966 28.4443 21.2692L28.3748 21.4006C28.3748 21.4006 28.3748 21.3976 28.3724 21.3976L27.0841 23.8023C27.405 24.0802 27.7474 24.3132 28.1066 24.5014C29.5291 25.2392 30.9851 25.2034 32.4195 24.4267C33.4564 23.8651 34.2706 23.0107 34.8262 21.9264L32.8673 20.2923ZM39.0984 8.09546V21.4604L40.7651 22.3028L39.8192 25.057L37.98 24.1011C37.5681 23.877 37.2856 23.5365 37.0748 23.1511C36.8713 22.7598 36.7204 22.2191 36.7204 21.4962V8.09546H39.0984ZM43.4136 18.0579C43.4136 16.9198 43.8183 15.8981 44.4553 15.2051L42.7455 12.8272C41.5865 14.1058 40.8561 15.9728 40.8561 18.0519C40.8537 20.134 41.5841 22.004 42.7407 23.2826L44.4481 20.9047C43.8136 20.2087 43.4136 19.193 43.4136 18.0579ZM46.4501 21.8487C46.1149 21.8487 45.7892 21.777 45.4875 21.6515L44.6709 24.6776C45.2288 24.9106 45.8251 25.0391 46.4477 25.0391C49.1538 25.0421 51.412 22.6463 51.9364 19.4649L49.4268 18.8256C49.1418 20.5552 47.9181 21.8517 46.4501 21.8487ZM46.4573 11.0767C45.8371 11.0767 45.2408 11.2022 44.6828 11.4322L45.4922 14.4613C45.7964 14.3358 46.1197 14.2671 46.4549 14.2671C47.9253 14.2701 49.1514 15.5725 49.4292 17.3051L51.9388 16.6718C51.4239 13.4844 49.1657 11.0797 46.4573 11.0767Z" fill="white"/>
</g>
<defs>
<clipPath id="clip0_5305_294">
<rect width="56" height="33" fill="white"/>
</clipPath>
</defs>
</svg>
