<svg width="61" height="25" viewBox="0 0 61 25" fill="none" xmlns="http://www.w3.org/2000/svg">
<g clip-path="url(#clip0_5305_329)">
<path d="M16.5476 0.0090332H10.3003C7.53994 0.133345 5.28352 1.19185 4.632 3.37477C4.29234 4.5133 4.10539 5.76349 3.83967 6.94373C2.4893 12.9445 1.29174 19.1103 0 24.9911H48.6369C52.3971 24.9911 54.9787 24.2346 55.6765 21.3933C56.0006 20.0733 56.3111 18.5782 56.6212 17.128C57.83 11.4738 59.0399 5.81976 60.2781 0.0090332H16.5476Z" fill="#B82126"/>
<path d="M42.1403 14.9346C41.4576 15.5633 39.5414 15.7419 39.7375 14.2391C39.9003 12.9908 41.3448 12.7256 42.9103 12.9058C42.7939 13.5886 42.6604 14.4555 42.1403 14.9347V14.9346ZM39.9838 10.0656C39.9188 10.4099 39.8187 10.7216 39.7375 11.0509C40.5191 10.8666 42.9531 10.3013 43.1876 11.2828C43.2655 11.609 43.1311 11.9554 43.0336 12.2103C40.8326 12.0141 39.0387 12.3582 38.567 13.8333C38.2509 14.8213 38.6024 15.7936 39.2755 16.0651C40.5719 16.5874 42.1488 15.9888 42.6947 15.1665C42.638 15.4512 42.5843 15.7388 42.6023 16.094H43.742C43.7541 15.067 43.9129 14.2357 44.0808 13.3116C44.224 12.5247 44.4933 11.7455 44.4504 11.051C44.3527 9.46038 41.5517 10.0229 39.9838 10.0656ZM51.4123 15.4273C50.5205 15.4452 50.0772 14.9261 50.0568 14.0652C50.0213 12.5575 50.7242 10.8824 52.1515 10.7322C52.8161 10.6623 53.2972 10.8076 53.7841 10.9641C53.3372 12.6576 53.4985 15.3851 51.4123 15.4273ZM54.3693 7.45727C54.2559 8.3937 54.1041 9.29437 53.9074 10.1525C50.6583 9.18497 48.6657 11.434 48.7014 14.21C48.7085 14.747 48.8066 15.2794 49.1636 15.6591C49.7786 16.3137 51.5397 16.4702 52.4288 15.92C52.601 15.8135 52.7768 15.6198 52.891 15.4853C52.9766 15.3841 53.1126 15.1192 53.1372 15.1953C53.0906 15.4896 53.0206 15.7621 53.0141 16.094H54.2155C54.4469 12.9691 55.1629 10.3001 55.694 7.45715L54.3693 7.45727ZM20.4543 14.9636C19.7455 15.6698 18.0033 15.659 17.8668 14.4709C17.8072 13.9539 18.012 13.4118 18.1132 12.8769C18.2156 12.3355 18.2893 11.816 18.3903 11.3408C19.0883 10.5388 21.1395 10.4421 21.3476 11.7756C21.5282 12.9333 21.0412 14.3788 20.4543 14.9636ZM21.5016 10.0656C20.3805 9.66944 19.0141 10.1424 18.4219 10.5923C18.4239 10.612 18.4078 10.6147 18.3903 10.6163C18.4004 10.6082 18.4114 10.6003 18.4219 10.5923C18.4218 10.5906 18.4215 10.589 18.4211 10.5874C18.4311 10.3938 18.5036 10.2591 18.5136 10.0656H17.3739C16.8989 13.0386 16.3357 15.9285 15.7412 18.7892H17.0658C17.2575 17.675 17.3841 16.4998 17.6511 15.4563C17.9536 16.5537 19.9287 16.3441 20.7623 15.92C22.482 15.0451 23.8086 10.881 21.5016 10.0656ZM27.7856 12.1523H24.6745C24.7729 11.4794 25.4164 10.7397 26.4303 10.7033C27.3844 10.6689 28.0676 11.0328 27.7856 12.1523ZM26.5227 9.94967C25.5655 10.0191 24.7566 10.2781 24.1816 10.8481C23.4763 11.5471 22.9052 13.0926 23.0725 14.4999C23.3113 16.5077 25.9683 16.4358 28.0937 15.9489C28.1298 15.5966 28.2205 15.2954 28.2785 14.9636C27.4029 15.2719 25.8829 15.7021 24.9825 15.1665C24.3026 14.7621 24.2986 13.7379 24.5204 12.8479C25.9488 12.8052 27.4334 12.8133 28.8637 12.8479C28.9545 12.217 29.2142 11.5292 28.9869 10.9062C28.6873 10.0835 27.6144 9.87065 26.5227 9.94967ZM14.8787 10.0656C14.8429 10.0705 14.8453 10.1115 14.8478 10.1525C14.556 12.2061 14.161 14.1628 13.7389 16.094H15.0635C15.3817 14.0264 15.7463 12.0027 16.2032 10.0656H14.8787ZM49.441 10.0945C48.2703 9.54389 47.2957 10.4679 46.9152 11.022C47.0235 10.7377 47.0295 10.3571 47.1306 10.0656H45.96C45.6445 12.1356 45.2639 14.1445 44.8203 16.094H46.1757C46.1842 15.295 46.351 14.704 46.4836 13.9203C46.767 12.2472 47.1828 10.4124 49.256 10.9641C49.3249 10.6811 49.3535 10.3602 49.441 10.0945ZM34.5624 14.6738C34.4404 14.3771 34.4087 13.8869 34.4392 13.5145C34.5077 12.6769 34.832 11.6574 35.3326 11.1959C36.0233 10.5589 37.387 10.6643 38.4745 11.022C38.5084 10.6771 38.582 10.3695 38.6287 10.0367C36.8448 9.76259 35.1521 9.93309 34.2545 10.8191C33.3759 11.6866 32.7999 13.6802 33.2071 14.9346C33.6837 16.4025 35.8203 16.4823 37.5506 15.92C37.6271 15.625 37.6676 15.2961 37.7354 14.9926C36.79 15.4547 34.9826 15.6949 34.5624 14.6738ZM33.8233 10.0656C32.6487 9.61933 31.7255 10.3735 31.2975 11.08C31.3944 10.7657 31.4345 10.3976 31.5129 10.0656H30.3424C30.0562 12.1537 29.6344 14.1141 29.2334 16.094H30.5581C30.7437 14.9187 30.8238 13.3345 31.2357 12.2103C31.5649 11.312 32.4262 10.5466 33.6692 10.9641C33.6866 10.6327 33.7875 10.3797 33.8233 10.0656ZM12.4759 7.63112C12.2867 8.78625 12.0736 9.91896 11.8598 11.051C10.4876 11.0646 9.08647 11.1148 7.76294 11.0219C8.0129 9.91448 8.1922 8.74029 8.44049 7.63101H6.96196C6.43262 10.4566 5.95129 13.3268 5.36035 16.0941H6.86962C7.10648 14.6744 7.32784 13.2404 7.63963 11.8917C8.92671 11.8618 10.4692 11.8099 11.7059 11.9206C11.4509 13.323 11.1427 14.6753 10.905 16.0941H12.4144C12.8993 13.2271 13.4104 10.3846 14.0163 7.63124L12.4759 7.63112ZM16.234 8.9063C16.4981 8.73525 16.8381 7.95564 16.4496 7.63112C16.3265 7.52833 16.1207 7.49852 15.8336 7.54425C15.5671 7.58651 15.4139 7.67159 15.3099 7.80498C15.1424 8.01942 14.9891 8.66609 15.2482 8.9063C15.5005 9.14024 16.066 9.01504 16.234 8.9063Z" fill="white"/>
</g>
<defs>
<clipPath id="clip0_5305_329">
<rect width="61" height="25" fill="white"/>
</clipPath>
</defs>
</svg>
