<svg width="51" height="41" viewBox="0 0 51 41" fill="none" xmlns="http://www.w3.org/2000/svg">
<path d="M44.5834 32.3172V32.3803H44.6566C44.6703 32.3805 44.6839 32.3777 44.6958 32.3723C44.7006 32.3696 44.7045 32.366 44.707 32.3617C44.7096 32.3575 44.7108 32.3528 44.7106 32.3482C44.7108 32.3436 44.7096 32.339 44.707 32.3349C44.7044 32.3307 44.7006 32.3272 44.6958 32.3247C44.684 32.3189 44.6704 32.3161 44.6566 32.3166H44.5834V32.3172ZM44.6574 32.2726C44.6888 32.271 44.7198 32.2783 44.7453 32.2931C44.7555 32.2998 44.7636 32.3084 44.769 32.3181C44.7743 32.3278 44.7768 32.3383 44.7761 32.3489C44.7766 32.3581 44.7746 32.3672 44.7703 32.3756C44.7661 32.3841 44.7596 32.3917 44.7514 32.398C44.7317 32.4117 44.7071 32.42 44.6811 32.4215L44.7792 32.5114H44.7037L44.6134 32.4222H44.5842V32.5114H44.521V32.2727H44.6584L44.6574 32.2726ZM44.6378 32.5938C44.6709 32.5941 44.7037 32.5887 44.7341 32.578C44.7634 32.5679 44.79 32.5534 44.8126 32.5353C44.8352 32.5172 44.8533 32.4958 44.8658 32.4722C44.8915 32.4222 44.8915 32.366 44.8658 32.316C44.8531 32.2925 44.8351 32.2711 44.8126 32.2529C44.79 32.2348 44.7634 32.2203 44.7341 32.2101C44.7035 32.2 44.6708 32.195 44.6378 32.1953C44.6042 32.195 44.5708 32.2001 44.5396 32.2101C44.5097 32.2201 44.4824 32.2346 44.4594 32.2529C44.4247 32.2815 44.4012 32.3177 44.3919 32.357C44.3825 32.3962 44.3878 32.4368 44.407 32.4737C44.4189 32.4974 44.4368 32.5189 44.4594 32.5368C44.4824 32.5551 44.5097 32.5696 44.5396 32.5796C44.5706 32.5902 44.604 32.5956 44.6378 32.5954M44.6378 32.1379C44.724 32.1378 44.8068 32.165 44.8683 32.2136C44.898 32.2369 44.9216 32.2647 44.9378 32.2955C44.9546 32.327 44.9632 32.3609 44.9632 32.3953C44.9632 32.4296 44.9546 32.4635 44.9378 32.495C44.9212 32.5256 44.8977 32.5534 44.8683 32.5769C44.8382 32.6001 44.8032 32.6188 44.7649 32.6321C44.7247 32.6459 44.6814 32.6528 44.6378 32.6526C44.5936 32.6529 44.5498 32.6459 44.509 32.6321C44.4703 32.6191 44.4349 32.6004 44.4048 32.5769C44.3755 32.5525 44.3522 32.5238 44.3363 32.4924C44.3196 32.4608 44.3109 32.4269 44.3109 32.3926C44.3109 32.3583 44.3196 32.3243 44.3363 32.2928C44.3525 32.2621 44.3761 32.2342 44.4058 32.2109C44.4355 32.187 44.471 32.1682 44.51 32.1557C44.5507 32.1419 44.5945 32.1349 44.6387 32.1352M14.5887 31.216C14.5887 30.7609 14.9596 30.387 15.5658 30.387C16.1452 30.387 16.5361 30.7448 16.5361 31.216C16.5361 31.6873 16.1452 32.0451 15.5658 32.0451C14.9596 32.0451 14.5887 31.6712 14.5887 31.216M17.1964 31.216V29.9208H16.496V30.2363C16.2739 30.0031 15.9369 29.8569 15.4787 29.8569C14.576 29.8569 13.8675 30.4261 13.8675 31.2167C13.8675 32.0072 14.5756 32.5764 15.4787 32.5764C15.9367 32.5764 16.2739 32.43 16.496 32.197V32.5114H17.1957V31.216H17.1964ZM40.862 31.216C40.862 30.7609 41.2329 30.387 41.8393 30.387C42.4192 30.387 42.8095 30.7448 42.8095 31.216C42.8095 31.6873 42.4192 32.0451 41.8393 32.0451C41.2331 32.0451 40.862 31.6712 40.862 31.216ZM43.4705 31.216V28.8811H42.7695V30.2363C42.5474 30.0031 42.2104 29.8569 41.7522 29.8569C40.8494 29.8569 40.141 30.4261 40.141 31.2167C40.141 32.0072 40.8491 32.5764 41.7522 32.5764C42.2104 32.5764 42.5474 32.43 42.7695 32.197V32.5114H43.4705V31.216ZM25.8893 30.3603C26.3407 30.3603 26.6305 30.5878 26.7045 30.9884H25.0333C25.1081 30.6145 25.3905 30.3603 25.8895 30.3603M25.9034 29.8555C24.9595 29.8555 24.2991 30.4076 24.2991 31.2152C24.2991 32.0386 24.986 32.575 25.9503 32.575C26.4355 32.575 26.8798 32.4777 27.2707 32.2122L26.9274 31.7949C26.6574 31.9684 26.3136 32.0658 25.9904 32.0658C25.539 32.0658 25.1281 31.8977 25.027 31.4315H27.4186C27.4255 31.3615 27.4326 31.2908 27.4326 31.2151C27.4255 30.4078 26.8046 29.8553 25.903 29.8553M34.3592 31.2151C34.3592 30.7599 34.7301 30.386 35.3363 30.386C35.9157 30.386 36.3066 30.7438 36.3066 31.2151C36.3066 31.6863 35.9157 32.0441 35.3363 32.0441C34.7301 32.0441 34.359 31.6702 34.359 31.2151M36.9667 31.2151V29.9208H36.2667V30.2363C36.0438 30.0031 35.7076 29.8569 35.2494 29.8569C34.3467 29.8569 33.6382 30.4261 33.6382 31.2167C33.6382 32.0072 34.3463 32.5764 35.2494 32.5764C35.7076 32.5764 36.0438 32.43 36.2667 32.197V32.5114H36.9669V31.216L36.9667 31.2151ZM30.4039 31.2151C30.4039 32.0006 31.0841 32.5749 32.1222 32.5749C32.6074 32.5749 32.9306 32.4881 33.2801 32.2661L32.9437 31.811C32.6808 31.9629 32.4046 32.0441 32.0999 32.0441C31.5408 32.0386 31.1296 31.7136 31.1296 31.2151C31.1296 30.7165 31.5408 30.3917 32.0999 30.386C32.4039 30.386 32.68 30.4673 32.9437 30.6192L33.2801 30.1641C32.93 29.9421 32.6068 29.8553 32.1222 29.8553C31.0841 29.8553 30.4039 30.4294 30.4039 31.2151M39.4331 29.8553C39.0291 29.8553 38.7659 30.0072 38.584 30.2347V29.9208H37.8899V32.51H38.5911V31.0586C38.5911 30.6301 38.8201 30.392 39.2779 30.392C39.4278 30.3903 39.5767 30.4124 39.7159 30.4572L39.9318 29.9265C39.7768 29.8774 39.5746 29.8558 39.4328 29.8558M20.6592 30.1267C20.3222 29.9481 19.8579 29.8558 19.3457 29.8558C18.5297 29.8558 18.0044 30.1702 18.0044 30.6847C18.0044 31.1069 18.3955 31.3673 19.1157 31.4486L19.4466 31.4864C19.8306 31.5298 20.012 31.6111 20.012 31.7573C20.012 31.9575 19.7569 32.0718 19.2778 32.0718C18.7927 32.0718 18.4426 31.9471 18.2065 31.8009L17.8774 32.2399C18.2615 32.4674 18.7466 32.576 19.2719 32.576C20.2021 32.576 20.7412 32.2238 20.7412 31.7308C20.7412 31.2757 20.3169 31.0376 19.6159 30.9564L19.2859 30.9179C18.9827 30.8863 18.7397 30.8372 18.7397 30.6637C18.7397 30.4744 18.9687 30.3605 19.353 30.3605C19.7641 30.3605 20.1621 30.4851 20.3572 30.5824L20.6604 30.1273L20.6592 30.1267ZM29.6965 29.8563C29.2924 29.8563 29.0292 30.0082 28.8481 30.2357V29.9208H28.154V32.51H28.8544V31.0586C28.8544 30.6301 29.0834 30.392 29.5412 30.392C29.6912 30.3903 29.84 30.4124 29.9792 30.4572L30.1951 29.9265C30.0401 29.8774 29.8379 29.8558 29.6961 29.8558M23.7196 29.9208H22.5743V29.1353H21.8663V29.9208H21.213V30.4354H21.8663V31.6166C21.8663 32.2174 22.1563 32.5752 22.9849 32.5752C23.2889 32.5752 23.639 32.4995 23.8611 32.375L23.6588 31.8928C23.4498 31.9902 23.2208 32.0393 23.0387 32.0393C22.6886 32.0393 22.5743 31.8657 22.5743 31.6059V30.4359H23.7196V29.9208ZM13.2482 32.5107V30.8857C13.2482 30.2737 12.7631 29.8619 11.981 29.8564C11.5699 29.8509 11.1458 29.9538 10.8489 30.3171C10.6268 30.03 10.2767 29.8564 9.78447 29.8564C9.44046 29.8564 9.10429 29.9377 8.84112 30.2409V29.9208H8.14014V32.51H8.84662V31.0744C8.84662 30.6249 9.15669 30.386 9.63552 30.386C10.1006 30.386 10.3359 30.6298 10.3359 31.0687V32.5097H11.044V31.074C11.044 30.6246 11.3672 30.3857 11.8321 30.3857C12.3103 30.3857 12.5386 30.6295 12.5386 31.0684V32.5094L13.2482 32.5107Z" fill="#231F20"/>
<path d="M44.9827 23.8977V23.519H44.86L44.7182 23.7789L44.5771 23.519H44.454V23.8977H44.5411V23.6124L44.6738 23.8586H44.7641L44.8967 23.6118V23.8977H44.9831H44.9827ZM44.2046 23.8977V23.5839H44.3616V23.52H43.9604V23.5839H44.1174V23.8977H44.2038H44.2046Z" fill="#F79410"/>
<path d="M31.0423 25.5215H20.4282V10.1866H31.0425L31.0423 25.5215Z" fill="#FF5F00"/>
<path d="M21.101 17.8544C21.101 14.7437 22.9128 11.9728 25.734 10.187C23.5985 8.83329 20.9571 8.09859 18.2376 8.10182C11.5384 8.10182 6.10791 12.4681 6.10791 17.8544C6.10791 23.2407 11.5384 27.607 18.2376 27.607C20.9572 27.6103 23.5986 26.8756 25.7342 25.5218C22.9131 23.7364 21.101 20.9652 21.101 17.8544Z" fill="#EB001B"/>
<path d="M45.3616 17.8544C45.3616 23.2407 39.9311 27.607 33.2319 27.607C30.512 27.6102 27.8703 26.8755 25.7344 25.5218C28.5564 23.7361 30.3681 20.9652 30.3681 17.8544C30.3681 14.7436 28.5564 11.9728 25.7344 10.187C27.8703 8.83333 30.5119 8.09864 33.2317 8.10182C39.9309 8.10182 45.3614 12.4681 45.3614 17.8544" fill="#F79E1B"/>
</svg>
